<svg width="935" height="954" viewBox="0 0 935 954" xmlns="http://www.w3.org/2000/svg"><g fill="none"><path d="M871.099 202.037c36.77 23.143 65.713 77.847 63.839 121.44L921.894 664.81c-1.866 43.593-34.694 95.888-73.16 115.9L546.443 939.894c-38.642 20.453-100.404 18.047-137.177-5.093L120.02 752.648c-36.775-23.14-65.71-77.842-63.843-121.434l13.047-341.337c1.868-43.592 34.693-95.888 73.161-115.9L444.677 14.792C483.32-5.659 545.081-3.255 581.853 19.89L871.1 202.037z" fill-opacity=".03" fill="#0F3D6C"/><path d="M849.894 723.538c-10.048 38.31-49.703 78.451-88.139 88.767l-300.525 82.15c-38.438 10.321-92.931-3.894-120.887-31.861L118.979 643.385C90.59 615.392 75.752 561.037 85.8 522.727l79.163-301.363c10.048-38.31 49.703-78.451 88.138-88.768l300.527-82.152c38.436-10.316 92.93 3.898 120.887 31.861L895.88 301.517c28.381 27.993 43.227 82.348 33.175 120.658l-79.162 301.363z" fill="#0F3D6C"/><path d="M867.152 281.082c3.023 8.166.947 20.395-4.67 27.097l-43.73 52.675c-5.617 6.703-17.218 11.011-25.776 9.498L725.49 358.77c-8.64-1.464-18.165-9.384-21.188-17.551l-23.756-64.259c-3.022-8.166-.947-20.395 4.67-27.097l43.73-52.675c5.617-6.703 17.218-11.012 25.776-9.499l67.486 11.584c8.64 1.464 18.165 9.384 21.188 17.55l23.756 64.26z" fill="#42E9F4" opacity=".738"/><path d="M191.866 636.995c-3.222 9.514-13.972 18.967-23.887 20.895l-77.546 15.46c-9.915 1.928-23.462-2.634-30.046-10.203L8.21 603.763c-6.693-7.584-9.49-21.6-6.268-31.114l25.372-74.842c3.221-9.514 13.971-18.967 23.886-20.896l77.546-15.459c9.915-1.929 23.463 2.633 30.047 10.203l52.175 59.383c6.694 7.586 9.49 21.6 6.268 31.115l-25.371 74.842z" fill="#42E9F4" opacity=".124"/><path d="M864.047 766.37c6.638 7.538 9.472 21.563 6.203 31.109l-25.248 74.845c-3.27 9.546-13.973 18.996-23.813 20.917l-77.454 15.524c-9.908 2.008-23.445-2.566-30.084-10.104l-52.206-59.322c-6.638-7.538-9.472-21.562-6.203-31.108l25.248-74.846c3.27-9.545 13.973-18.995 23.813-20.916l77.454-15.525c9.908-2.007 23.445 2.567 30.084 10.105l52.206 59.321z" fill-opacity=".9" fill="#F27405" style="mix-blend-mode:screen"/></g></svg>